<svg width="58" height="58" viewBox="0 0 58 58" fill="none" xmlns="http://www.w3.org/2000/svg">
<g filter="url(#filter0_d_235_38)">
<rect x="4" y="50" width="50" height="50" rx="10" transform="rotate(-90 4 50)" fill="#0C0C0C"/>
</g>
<mask id="path-2-inside-1_235_38" fill="white">
<path fill-rule="evenodd" clip-rule="evenodd" d="M16.779 14.1809C16.7644 14.2646 16.7504 14.3487 16.737 14.433C15.4843 22.3425 20.2174 29.665 27.3087 30.7881C34.4 31.9113 41.1642 26.4098 42.4169 18.5003C42.6057 17.3083 42.6586 16.1296 42.5879 14.9834C44.8216 18.2403 45.861 22.3252 45.1944 26.5337C43.8121 35.2615 35.6162 41.2161 26.8885 39.8338C18.1607 38.4514 12.2061 30.2556 13.5884 21.5278C14.0286 18.7485 15.1597 16.2504 16.779 14.1809Z"/>
</mask>
<path fill-rule="evenodd" clip-rule="evenodd" d="M16.779 14.1809C16.7644 14.2646 16.7504 14.3487 16.737 14.433C15.4843 22.3425 20.2174 29.665 27.3087 30.7881C34.4 31.9113 41.1642 26.4098 42.4169 18.5003C42.6057 17.3083 42.6586 16.1296 42.5879 14.9834C44.8216 18.2403 45.861 22.3252 45.1944 26.5337C43.8121 35.2615 35.6162 41.2161 26.8885 39.8338C18.1607 38.4514 12.2061 30.2556 13.5884 21.5278C14.0286 18.7485 15.1597 16.2504 16.779 14.1809Z" fill="white"/>
<path d="M16.779 14.1809L17.7641 14.3526L15.9914 13.5647L16.779 14.1809ZM42.5879 14.9834L43.4126 14.4178L41.3671 11.4354L41.5898 15.045L42.5879 14.9834ZM17.7247 14.5894C17.7373 14.5102 17.7504 14.4313 17.7641 14.3526L15.7938 14.0092C15.7783 14.098 15.7635 14.1871 15.7493 14.2766L17.7247 14.5894ZM27.4651 29.8004C21.018 28.7793 16.5419 22.0577 17.7247 14.5894L15.7493 14.2766C14.4267 22.6274 19.4168 30.5506 27.1523 31.7758L27.4651 29.8004ZM41.4292 18.3439C40.2464 25.8121 33.9123 30.8216 27.4651 29.8004L27.1523 31.7758C34.8877 33.001 42.082 27.0076 43.4046 18.6567L41.4292 18.3439ZM41.5898 15.045C41.656 16.1184 41.6066 17.2241 41.4292 18.3439L43.4046 18.6567C43.6049 17.3925 43.6612 16.1407 43.586 14.9218L41.5898 15.045ZM41.7632 15.549C43.858 18.6033 44.8317 22.4313 44.2067 26.3773L46.1821 26.6901C46.8903 22.219 45.7852 17.8772 43.4126 14.4178L41.7632 15.549ZM44.2067 26.3773C42.9108 34.5595 35.2272 40.142 27.0449 38.8461L26.732 40.8215C36.0053 42.2902 44.7134 35.9634 46.1821 26.6901L44.2067 26.3773ZM27.0449 38.8461C18.8626 37.5501 13.2801 29.8665 14.5761 21.6842L12.6007 21.3714C11.132 30.6446 17.4588 39.3527 26.732 40.8215L27.0449 38.8461ZM14.5761 21.6842C14.989 19.0769 16.0493 16.7363 17.5665 14.7971L15.9914 13.5647C14.2702 15.7645 13.0682 18.42 12.6007 21.3714L14.5761 21.6842Z" fill="white" mask="url(#path-2-inside-1_235_38)"/>
<rect x="35.5588" y="14.039" width="2.76857" height="15" rx="1.38429" transform="rotate(64.6777 35.5588 14.039)" fill="white" fill-opacity="0.7"/>
<rect x="27.9829" y="11" width="2.76857" height="15" rx="1.38429" fill="#E5E5E5"/>
<rect width="2.76857" height="15" rx="1.38429" transform="matrix(0.42771 -0.903916 -0.903916 -0.42771 35.5588 22.9572)" fill="white"/>
<defs>
<filter id="filter0_d_235_38" x="0" y="0" width="58" height="58" filterUnits="userSpaceOnUse" color-interpolation-filters="sRGB">
<feFlood flood-opacity="0" result="BackgroundImageFix"/>
<feColorMatrix in="SourceAlpha" type="matrix" values="0 0 0 0 0 0 0 0 0 0 0 0 0 0 0 0 0 0 127 0" result="hardAlpha"/>
<feOffset dy="4"/>
<feGaussianBlur stdDeviation="2"/>
<feColorMatrix type="matrix" values="0 0 0 0 0 0 0 0 0 0 0 0 0 0 0 0 0 0 0.25 0"/>
<feBlend mode="normal" in2="BackgroundImageFix" result="effect1_dropShadow_235_38"/>
<feBlend mode="normal" in="SourceGraphic" in2="effect1_dropShadow_235_38" result="shape"/>
</filter>
</defs>
</svg>
